<svg xmlns="http://www.w3.org/2000/svg" viewBox="0 0 346.03 346.03"><defs><style>.cls-1{fill:#bccf67;}.cls-2{fill:#231f20;opacity:0.6;}.cls-3{fill:#ede7ad;}</style></defs><title>1</title><g id="Layer_2" data-name="Layer 2"><g id="Layer_1-2" data-name="Layer 1"><circle class="cls-1" cx="173.02" cy="173.02" r="164.52" transform="translate(-71.67 173.02) rotate(-45)"/><path class="cls-2" d="M110.54,238.57l87.37,100.74,37.33-15.16L306.57,278l30.55-72.67V163.42L243.9,81.73S233.54,68.91,207,71.2L178.13,85.9l-15.69-6.08,7.05,22,2.89,29.28Z"/><path class="cls-3" d="M249.89,139c-14-28.41-53.72-22-70.21-18,.83-10.55-.85-18.61-3.37-24.65.82-.85,1.62-1.64,2.39-2.37,3.05,9.63,14.17,15.36,25.46,12.6,15.91-3.89,25.18-28.37,39.74-24.92a51.74,51.74,0,0,0-48.48-12.88C184.91,71.39,177.7,80,177.88,89.21A59.53,59.53,0,0,1,203,76.94c11.18-2.62,22-2.1,30.93.79a59.85,59.85,0,0,0-28.36-.08,61.44,61.44,0,0,0-21.79,9.66h0c-2.92,1.41-6.38,4.67-8.52,6.86a34.28,34.28,0,0,0-11.08-13.25,7,7,0,0,0-9.11,10.73c.21.18,12.93,7.17,10.41,29.53C149.31,117.12,109,110.35,94.87,139c-17.79,36.21-5.71,85.76,24.78,107.36s52.73,10.17,52.73,10.17,22.23,11.43,52.73-10.17S267.67,175.23,249.89,139Zm-6,44.44c-.32,2.12-.5,4.26-1,6.37-.22,1-.41,2.12-.65,3.17l-.84,3.13-.42,1.56-.52,1.52c-.36,1-.71,2-1.06,3s-.82,2-1.23,3-.82,2-1.28,2.9-1,1.87-1.46,2.79a29.86,29.86,0,0,1-1.5,2.72c-.54.87-1.09,1.73-1.63,2.59s-1,1.73-1.65,2.51c-1.19,1.6-2.31,3.21-3.49,4.7l-3.62,4.25c-1.21,1.35-2.48,2.57-3.65,3.8-.6.6-1.17,1.21-1.77,1.77s-1.2,1.08-1.79,1.61l-3.35,3c-1.1.91-2.17,1.74-3.16,2.53L207,242.61c-.87.67-1.72,1.21-2.46,1.74l-4.7,3.27-.41-.57,4.34-3.68c.68-.59,1.46-1.21,2.26-1.94l2.57-2.41c.91-.86,1.9-1.76,2.9-2.74l3-3.21,1.61-1.71c.54-.59,1-1.23,1.57-1.86,1-1.29,2.18-2.57,3.24-4l3.17-4.34c1-1.52,2-3.12,3-4.72.53-.78.94-1.65,1.4-2.49l1.37-2.56c.49-.83.82-1.76,1.24-2.64s.81-1.79,1.21-2.69.69-1.85,1-2.77.72-1.85,1-2.81l.81-2.87.41-1.43.29-1.46.59-2.92c.16-1,.26-2,.38-2.94.3-2,.29-3.93.4-5.86,0-1,0-1.94,0-2.9s0-1.91-.11-2.86-.14-1.89-.18-2.82-.2-1.86-.31-2.77l-.12-1.37c-.07-.46-.14-.91-.2-1.36-.15-.89-.25-1.79-.38-2.67-.33-1.75-.58-3.48-1-5.14-.67-3.34-1.55-6.47-2.4-9.36s-1.81-5.5-2.67-7.83c-.45-1.15-.85-2.25-1.28-3.24s-.78-1.92-1.15-2.74-.69-1.56-1-2.2l-.75-1.62c-.43-.88-.65-1.35-.65-1.35l.56-.43a37.33,37.33,0,0,1,4,4.28,64.19,64.19,0,0,1,3.94,5.43c.7,1.1,1.43,2.28,2.13,3.56.35.64.73,1.29,1.08,2l1.05,2.11a66.64,66.64,0,0,1,3.76,9.71c.59,1.77,1,3.64,1.44,5.54.2,1,.36,1.94.51,2.93l.24,1.48c.05.51.1,1,.16,1.52A62,62,0,0,1,243.85,183.46Z"/><path class="cls-3" d="M173,346C77.61,346,0,268.42,0,173S77.61,0,173,0,346,77.61,346,173,268.42,346,173,346Zm0-329C87,17,17,87,17,173S87,329,173,329s156-70,156-156S259,17,173,17Z"/></g></g></svg>