<svg xmlns="http://www.w3.org/2000/svg" viewBox="0 0 346.03 346.03"><defs><style>.cls-1{fill:#f9a464;}.cls-2{fill:#231f20;fill-rule:evenodd;opacity:0.6;}.cls-3{fill:#ede7ad;}</style></defs><title>2</title><g id="Layer_2" data-name="Layer 2"><g id="Layer_1-2" data-name="Layer 1"><circle class="cls-1" cx="173.45" cy="171.5" r="164.52"/><polyline class="cls-2" points="126.82 264.23 217.16 330.14 302.34 284.5 340.5 185.85 243.47 99.8 179.28 97.39 160.66 96.49 102.51 107.81"/><path class="cls-3" d="M173,0C77.61,0,0,77.61,0,173S77.61,346,173,346a172.72,172.72,0,0,0,38.43-4.31C288,324.3,345.39,256,346,174.36c0-.45,0-.89,0-1.34C346,77.61,268.42,0,173,0ZM329,173c0,86-70,156-156,156a157.75,157.75,0,0,1-17.9-1C77.49,319.09,17,253,17,173,17,87,87,17,173,17c82.23,0,149.8,64,155.6,144.74Q329,167.32,329,173Z"/><path class="cls-3" d="M143,76.87A24,24,0,0,0,119.76,95c-.28,0-.55-.08-.83-.08a23.9,23.9,0,0,0-23.41,29.31A30,30,0,0,0,76.87,152,29.67,29.67,0,0,0,80,165.1a29.92,29.92,0,0,0,3.41,53.7,26.68,26.68,0,0,0,31,31.88A27,27,0,0,0,167,242.12V154a33.23,33.23,0,0,1-14.41,6.91,3,3,0,0,1-3.62-3V151.9a3,3,0,0,1,2.18-2.88A21,21,0,0,0,167,128.72V100.91A24,24,0,0,0,143,76.87ZM281.18,191A29.91,29.91,0,0,0,266,165.1a29.75,29.75,0,0,0-15.52-40.89,23.62,23.62,0,0,0,.63-5.28,24,24,0,0,0-24-24c-.28,0-.55.07-.83.08A24,24,0,0,0,179,100.91v27.81A21,21,0,0,0,194.87,149a3,3,0,0,1,2.18,2.88V158a3,3,0,0,1-3.62,3A33.28,33.28,0,0,1,179,154v88.09a27,27,0,0,0,52.57,8.56,27,27,0,0,0,31-31.88A30.05,30.05,0,0,0,281.18,191Z"/></g></g></svg>