<svg xmlns="http://www.w3.org/2000/svg" viewBox="0 0 346.03 346.03"><defs><style>.cls-1{fill:#b4dbb1;}.cls-2{fill:#231f20;opacity:0.6;}.cls-3{fill:#ede7ad;}</style></defs><title>3</title><g id="Layer_2" data-name="Layer 2"><g id="Layer_1-2" data-name="Layer 1"><circle class="cls-1" cx="173.02" cy="173.02" r="164.52"/><path class="cls-2" d="M111.2,266,187,334,288.26,299l42-74.17,4.63-90.53L253.76,78.7,115.32,84.56l-12.67,72.19S77.78,200.83,111.2,266Z"/><path class="cls-3" d="M173,346C77.61,346,0,268.42,0,173S77.61,0,173,0,346,77.61,346,173,268.42,346,173,346Zm0-329C87,17,17,87,17,173S87,329,173,329s156-70,156-156S259,17,173,17Z"/><path class="cls-3" d="M257.14,211.48v-125c0-6-3.6-9.61-9.61-9.61H124.94c-20.43,0-36,15.62-36,36.05V233.11c0,20.43,15.62,36.05,36.05,36.05H247.53a9.47,9.47,0,0,0,9.61-9.61v-6c0-2.4-1.2-4.81-3.6-7.21-1.2-6-1.2-22.84,0-27.64q3.6-1.81,3.6-7.21ZM143,131a6,6,0,0,1,6-6h18v-18a6,6,0,0,1,6-6h12a6,6,0,0,1,6,6v18h18a6,6,0,0,1,6,6v12a6,6,0,0,1-6,6H191V191a6,6,0,0,1-6,6H173a6,6,0,0,1-6-6V149H149a6,6,0,0,1-6-6Zm88.94,114.18h-107c-7.21,0-12-4.81-12-12a12,12,0,0,1,12-12h107Z"/></g></g></svg>