<svg xmlns="http://www.w3.org/2000/svg" viewBox="0 0 346.03 346.03"><defs><style>.cls-1{fill:#bccf67;}.cls-2{fill:#231f20;opacity:0.6;}.cls-3{fill:#ede7ad;}</style></defs><title>4</title><g id="Layer_2" data-name="Layer 2"><g id="Layer_1-2" data-name="Layer 1"><circle class="cls-1" cx="173.02" cy="173.02" r="164.52"/><path class="cls-2" d="M84.06,233.33,130.74,336.5h74L286,289l43.65-53L335.1,187l-76.57-65.72s-22.71-34.12-81.25-13.75c-10.73-6.49-48,8.64-48,8.64s-29.68,14.16-35.45,28.51C86.5,163,84.06,233.33,84.06,233.33Z"/><path class="cls-3" d="M173,0C77.61,0,0,77.61,0,173S77.61,346,173,346a172,172,0,0,0,71.54-15.5A173,173,0,0,0,346,173C346,77.61,268.42,0,173,0Zm3.85,329c-1.28,0-2.57,0-3.85,0C87,329,17,259,17,173S87,17,173,17,329,87,329,173c0,4.81-.23,9.58-.66,14.29C321.24,265.4,256.33,327.05,176.87,329Z"/><path class="cls-3" d="M175.16,191.33c-5.38,1.85-10.56,3.84-16.36,3.07-.29-2-.52-4.08-.91-6.17-.93-5.06-1.88-10.11-2.92-15.15a87.28,87.28,0,0,1-1.73-23.57c.77-11.39,4.1-21.94,11.41-30.94a49.22,49.22,0,0,1,23.86-16A64.26,64.26,0,0,1,214.22,100a71.34,71.34,0,0,1,24.84,7c16.55,8.07,27.58,21.11,34.11,38.14a60,60,0,0,1,4.13,25.06,53.32,53.32,0,0,1-11.13,29.8c-9.38,12.34-21.93,20.15-36.34,25.29A135.1,135.1,0,0,1,211.32,230c-9.06,1.84-14.27,7.61-15.32,16.88a26.56,26.56,0,0,0,7.17,21.91c5.54,5.95,12.56,7.22,20.25,5.29,2.5-.63,4.89-1.73,7.4-2.33a8,8,0,0,1,8.27,3.61c1.83,2.91,1.91,6.77-.1,9.27a10.67,10.67,0,0,1-3.78,3,43.61,43.61,0,0,1-20.1,3.9,34.4,34.4,0,0,1-20.67-8.05c-8.38-7-13.08-16.1-14.79-26.71s0-20.76,6.47-29.68c5.43-7.5,13-11.82,22-13.53,7.9-1.5,15.69-3.28,23-6.72,6.95-3.27,13.38-7.33,18.62-13,5.66-6.16,9.49-13.24,10.61-21.63,1.35-10.09-1.38-19.31-6-28.14a49.71,49.71,0,0,0-22.24-21.79,55.28,55.28,0,0,0-20.37-5.77A43.47,43.47,0,0,0,188,120.75c-9.28,4.66-14.69,12.34-17,22.3-1.87,8-1.55,16.15-.08,24.21,1.12,6.19,2.39,12.34,3.53,18.52C174.82,187.61,174.94,189.48,175.16,191.33Z"/><path class="cls-3" d="M192.22,128a33,33,0,0,1,12.19-3.15c3-.18,6-.3,9-.53a2.83,2.83,0,0,1,2.59,1.06,41.92,41.92,0,0,1,10.67,22.54,48.8,48.8,0,0,1-1.79,21A69.56,69.56,0,0,1,210,195.06c-8.69,9.83-19,17.36-31.49,21.59C165,221.24,151.61,221,138.81,214c-7.87-4.31-13.92-10.59-18.91-17.95a101.93,101.93,0,0,1-16.12-40.58,127.43,127.43,0,0,1-1.51-28.28c1-18.46,5.26-36.18,11.66-53.44.94-2.52,2-5,3-7.48a8.44,8.44,0,0,1,8.26-5.42,8.46,8.46,0,0,1,7.22,11.93,182.43,182.43,0,0,0-10.56,33.54,131.93,131.93,0,0,0-3,33.21c.65,14.5,4,28.31,11.15,41.05,3.52,6.25,7.49,12.15,13.38,16.47,8.29,6.08,17.46,7.24,27.19,4.6,10.06-2.73,18.33-8.43,25.43-15.93,6.6-7,11.54-14.95,13.59-24.45,1.83-8.5.67-16.45-5-23.4a37.37,37.37,0,0,0-11.43-9.25C192.91,128.39,192.61,128.19,192.22,128Z"/><path class="cls-3" d="M93.84,144.71c.73,4.89,1.4,9.7,2.19,14.5.48,3,1.17,5.89,1.69,8.84a3.41,3.41,0,0,1-.24,1.92,64.26,64.26,0,0,0-5.82,19.42,58.19,58.19,0,0,0,5.67,33c3.94,8.15,8.62,15.82,15.09,22.24a31.8,31.8,0,0,0,12.13,8c6.89,2.33,13,.89,18.56-3.61,5.83-4.75,9.18-11.14,11.7-18.05.36-1,.66-2,1.06-3.16a58.32,58.32,0,0,0,17.62-1.07c-.79,2.79-1.45,5.45-2.3,8a63.15,63.15,0,0,1-10.7,20.37C154.13,263,146.19,268.47,136,270c-9.16,1.42-17.65-.83-25.5-5.62s-13.81-11.22-18.91-18.63c-6.48-9.41-11.74-19.41-14.65-30.54a72.1,72.1,0,0,1-2.32-22.39c1-17.5,7.41-32.95,18.06-46.73C93.08,145.63,93.48,145.16,93.84,144.71Z"/><path class="cls-3" d="M126.89,136.43c.31-4.73.61-9.47.93-14.2a42,42,0,0,1,.41-4.36,2.54,2.54,0,0,1,1.06-1.67,87.7,87.7,0,0,1,22-7.92c4.4-.9,8.86-1.49,13.58-2.27a89.55,89.55,0,0,0-6.17,6.7c-2.7,3.6-5.16,7.39-7.57,11.2a6.25,6.25,0,0,1-3.57,2.83,81.79,81.79,0,0,0-19.15,9.2c-.37.23-.76.44-1.13.66Z"/></g></g></svg>