<svg xmlns="http://www.w3.org/2000/svg" viewBox="0 0 65.62 64.25"><defs><style>.cls-1{isolation:isolate;}.cls-2{fill:#00be9d;}.cls-3{fill:#f9a463;}.cls-3,.cls-4,.cls-5{mix-blend-mode:multiply;}.cls-4{fill:#aaf0d1;}.cls-5{fill:#c5d67b;}</style></defs><title>BNNfavIcon</title><g class="cls-1"><g id="Layer_2" data-name="Layer 2"><g id="Layer_1-2" data-name="Layer 1"><path class="cls-2" d="M30.36,33.79a3.55,3.55,0,1,1,2.54,1.07A3.48,3.48,0,0,1,30.36,33.79Z"/><path class="cls-3" d="M23,31.5a9,9,0,0,1-2.34-.31,9.16,9.16,0,0,1-4.08-2.3c-4.67-4.67-6-17.44-6.09-18l-.06-.58.58.06c.55.06,13.32,1.42,18,6.09h0a9,9,0,0,1,2.29,4.08A8.63,8.63,0,0,1,23,31.5Z"/><path class="cls-4" d="M17.48,43c-6.61,0-16.61-8.07-17-8.41L0,34.2l.45-.37c.42-.34,10.42-8.42,17-8.42A9,9,0,0,1,22,26.68a8.65,8.65,0,0,1,0,15A9,9,0,0,1,17.48,43Z"/><path class="cls-4" d="M48.14,43a9,9,0,0,1-4.5-1.26,8.65,8.65,0,0,1,0-15,9,9,0,0,1,4.5-1.27c6.61,0,16.61,8.08,17,8.42l.45.37-.45.37C64.75,34.91,54.75,43,48.14,43Z"/><path class="cls-3" d="M43,31.5a8.64,8.64,0,0,1-8.29-10.95A9,9,0,0,1,37,16.47c4.67-4.67,17.45-6,18-6.09l.58-.06-.06.58c0,.55-1.41,13.32-6.09,18h0a9.16,9.16,0,0,1-4.08,2.3A9,9,0,0,1,43,31.5Z"/><path class="cls-5" d="M32.9,26.36A8.54,8.54,0,0,1,25.38,22a9,9,0,0,1-1.27-4.5c0-6.61,8.08-16.61,8.42-17L32.9,0l.37.45c.34.42,8.41,10.42,8.41,17A9,9,0,0,1,40.42,22,8.54,8.54,0,0,1,32.9,26.36Z"/><path class="cls-2" d="M32.9,47.92a1.42,1.42,0,0,1-1.4-1.17C27.46,24.89,3.34,6.54,3.1,6.35A1.42,1.42,0,1,1,4.81,4.08c.94.71,21.46,16.32,28.08,36.64C39.44,20.47,60,4.79,61,4.08A1.42,1.42,0,0,1,62.7,6.35C62.46,6.54,38.22,25,34.3,46.74a1.44,1.44,0,0,1-1.4,1.18Z"/><path class="cls-2" d="M32.9,64.25a1.43,1.43,0,0,1-1.43-1.42V46.49a1.43,1.43,0,1,1,2.85,0V62.83A1.42,1.42,0,0,1,32.9,64.25Z"/></g></g></g></svg>