<svg xmlns="http://www.w3.org/2000/svg" viewBox="0 0 99.92 99.92"><defs><style>.cls-1{fill:#00a990;}.cls-2{fill:#fff;}</style></defs><title>fabIcon</title><g id="Layer_2" data-name="Layer 2"><g id="Layer_1-2" data-name="Layer 1"><rect class="cls-1" width="99.92" height="99.92"/><path class="cls-2" d="M72.47,49A15.92,15.92,0,1,0,88.39,64.89,15.93,15.93,0,0,0,72.47,49Zm0,29.33A13.41,13.41,0,1,1,85.88,64.89,13.43,13.43,0,0,1,72.47,78.3Z"/><path class="cls-2" d="M27.45,49A15.93,15.93,0,0,0,14,56.35V41.13H11.53V66.29h.08A15.91,15.91,0,1,0,27.45,49Zm0,29.33A13.41,13.41,0,1,1,40.86,64.89,13.43,13.43,0,0,1,27.45,78.3Z"/><path class="cls-2" d="M50.11,56.68a2.17,2.17,0,0,0,2.15-2.15,2.15,2.15,0,0,0-2.15-2.15A2.17,2.17,0,0,0,48,54.53a2.19,2.19,0,0,0,2.15,2.15Z"/><path class="cls-2" d="M62.53,45.3a9.48,9.48,0,0,0,6.22,2.81l.75,0a10.27,10.27,0,0,0,5.18-1.3C81,43.2,86,30.2,86.2,29.64l.45-1.16-1.23-.2c-.58-.09-14.36-2.27-20.65,1.35a10.53,10.53,0,0,0-4.08,4.49,9.6,9.6,0,0,0-.8,2.23c-.85-7.2-8.7-16.92-9-17.36l-.79-1-.79,1c-.36.45-8.71,10.79-9.11,18a9.56,9.56,0,0,0-.91-2.91,10.59,10.59,0,0,0-4.08-4.49C28.87,26,15.1,28.19,14.51,28.28l-1.23.2.45,1.16c.21.56,5.23,13.56,11.52,17.19a10.27,10.27,0,0,0,5.18,1.3l.75,0a9.56,9.56,0,0,0,6.13-2.72C43.83,52.27,47.72,60,48.8,65.93V80.29h2.5V66.8C52.09,60.71,55.91,52.5,62.53,45.3ZM62.5,35a8.53,8.53,0,0,1,3.29-3.65c2.45-1.41,6.37-1.81,10-1.81a66.21,66.21,0,0,1,8,.53c-1.38,3.26-5.51,12.28-10.15,15a8.62,8.62,0,0,1-4.81,1,7.49,7.49,0,0,1-4.93-2.24A49.82,49.82,0,0,1,78.85,33.46,1,1,0,0,0,78,31.61,51.41,51.41,0,0,0,62.71,42.22,7.53,7.53,0,0,1,62.5,35ZM50.05,21.29c2.14,2.82,7.89,10.92,7.89,16.27a8.23,8.23,0,0,1-1.16,4.08,7.74,7.74,0,0,1-13.46,0,8.23,8.23,0,0,1-1.16-4.08C42.16,32.21,47.91,24.11,50.05,21.29ZM40.24,39a10.63,10.63,0,0,0,1.31,3.69,9.77,9.77,0,0,0,17,0,11.12,11.12,0,0,0,1.19-3.13A9.79,9.79,0,0,0,61,43.28c.09.15.2.29.29.44a48.73,48.73,0,0,0-11.16,19A49,49,0,0,0,38.59,43.84c.12-.19.26-.37.37-.56A9.65,9.65,0,0,0,40.24,39Zm-9.17,7.13a8.62,8.62,0,0,1-4.81-1c-4.63-2.68-8.77-11.7-10.15-15,3.51-.45,13.4-1.39,18,1.28A8.53,8.53,0,0,1,37.43,35a7.56,7.56,0,0,1-.23,7.22.36.36,0,0,1-.07.1A54.16,54.16,0,0,0,21.92,31.88a1,1,0,1,0-.85,1.84A52.41,52.41,0,0,1,35.88,43.94,7.46,7.46,0,0,1,31.07,46.08Z"/></g></g></svg>