<svg xmlns="http://www.w3.org/2000/svg" viewBox="0 0 149.29 135.38"><defs><style>.cls-1{isolation:isolate;}.cls-2{fill:#00be9d;}.cls-3,.cls-6{fill:#f9a463;}.cls-3,.cls-4,.cls-5{mix-blend-mode:multiply;}.cls-4{fill:#aaf0d1;}.cls-5{fill:#c5d67b;}</style></defs><title>logoNeuroNut</title><g class="cls-1"><g id="Layer_2" data-name="Layer 2"><g id="Layer_1-2" data-name="Layer 1"><path class="cls-2" d="M81.13,35.56a3.75,3.75,0,0,1,0-5.35,3.75,3.75,0,0,1,5.35,0,3.78,3.78,0,1,1-5.35,5.35Z"/><path class="cls-3" d="M73.4,33.15a9.51,9.51,0,0,1-2.46-.33,9.66,9.66,0,0,1-4.3-2.41c-4.92-4.92-6.34-18.36-6.4-18.93l-.06-.62.61.07c.57.06,14,1.48,18.93,6.4h0a9.57,9.57,0,0,1,2.41,4.3A9.11,9.11,0,0,1,73.4,33.15Z"/><path class="cls-4" d="M67.58,45.23c-7,0-17.48-8.49-17.92-8.85L49.18,36l.48-.39c.44-.36,11-8.86,17.92-8.86a9.51,9.51,0,0,1,4.74,1.34,9.09,9.09,0,0,1,0,15.82A9.49,9.49,0,0,1,67.58,45.23Z"/><path class="cls-4" d="M99.85,45.23a9.46,9.46,0,0,1-4.74-1.33,9.09,9.09,0,0,1,0-15.82,9.48,9.48,0,0,1,4.74-1.34c7,0,17.47,8.5,17.91,8.86l.48.39-.48.39C117.32,36.74,106.8,45.23,99.85,45.23Z"/><path class="cls-3" d="M94.48,33.15a9.11,9.11,0,0,1-8.73-11.52,9.58,9.58,0,0,1,2.42-4.3c4.91-4.92,18.36-6.34,18.93-6.4l.61-.07-.07.62c0,.57-1.48,14-6.4,18.93h0a9.66,9.66,0,0,1-4.3,2.41A9.51,9.51,0,0,1,94.48,33.15Z"/><path class="cls-5" d="M83.81,27.74a9,9,0,0,1-7.92-4.61,9.57,9.57,0,0,1-1.33-4.74c0-7,8.5-17.47,8.86-17.91L83.81,0l.38.48c.37.44,8.86,11,8.86,17.91a9.57,9.57,0,0,1-1.33,4.74A9,9,0,0,1,83.81,27.74Z"/><path class="cls-2" d="M117.46,57.75a18.19,18.19,0,1,1,18.19-18.19A18.21,18.21,0,0,1,117.46,57.75Zm0-33.38a15.19,15.19,0,1,0,15.19,15.19A15.21,15.21,0,0,0,117.46,24.37Z"/><path class="cls-2" d="M83.81,50.42a1.49,1.49,0,0,1-1.48-1.22C78.08,26.19,52.7,6.88,52.44,6.69a1.5,1.5,0,0,1,1.81-2.4c1,.75,22.58,17.18,29.55,38.56C90.69,21.55,112.37,5,113.37,4.29a1.49,1.49,0,0,1,2.1.3,1.51,1.51,0,0,1-.3,2.1c-.26.19-25.77,19.63-29.89,42.5a1.5,1.5,0,0,1-1.47,1.23Z"/><path class="cls-2" d="M49.35,57.75A18.19,18.19,0,1,1,67.54,39.56,18.21,18.21,0,0,1,49.35,57.75Zm0-33.38A15.19,15.19,0,1,0,64.54,39.56,15.2,15.2,0,0,0,49.35,24.37Z"/><path class="cls-2" d="M32.66,39.63a1.5,1.5,0,0,1-1.5-1.5V9.06a1.5,1.5,0,1,1,3,0V38.13A1.5,1.5,0,0,1,32.66,39.63Z"/><path class="cls-2" d="M83.81,57.75a1.5,1.5,0,0,1-1.5-1.5V48.92a1.5,1.5,0,0,1,3,0v7.33A1.5,1.5,0,0,1,83.81,57.75Z"/><path class="cls-2" d="M62.39,135.38a1.5,1.5,0,0,1-1.5-1.5V113.29c0-3.61-1-6.25-2.93-8.07s-4.88-2.75-8.61-2.75-6.64.93-8.62,2.75-2.92,4.46-2.92,8.07v20.59a1.5,1.5,0,0,1-3,0V113.29c0-4.44,1.31-7.89,3.89-10.27s6.13-3.55,10.65-3.55S57.44,100.67,60,103s3.9,5.83,3.9,10.27v20.59A1.51,1.51,0,0,1,62.39,135.38Z"/><path class="cls-2" d="M83.43,135.38c-4.52,0-8.1-1.2-10.65-3.55s-3.89-5.84-3.89-10.27V100.88a1.5,1.5,0,0,1,3,0v20.68c0,3.61,1,6.25,2.93,8.07s4.87,2.75,8.61,2.75,6.63-.93,8.61-2.75S95,125.17,95,121.56V100.88a1.5,1.5,0,0,1,3,0v20.68c0,4.43-1.31,7.89-3.9,10.27S87.94,135.38,83.43,135.38Z"/><path class="cls-2" d="M119,135.38a8.19,8.19,0,0,1-7.18-3.82c-1.58-2.37-2.35-5.64-2.35-10V100.88a1.5,1.5,0,0,1,3,0v20.68c0,3.7.62,6.5,1.85,8.34a5.67,5.67,0,0,0,9.37,0,1.5,1.5,0,0,1,2.5,1.66A8.2,8.2,0,0,1,119,135.38Z"/><path class="cls-2" d="M124.05,106.84H103.61a1.5,1.5,0,1,1,0-3h20.44a1.5,1.5,0,0,1,0,3Z"/><path class="cls-6" d="M131.27,96.52a18,18,0,1,1,18-18A18,18,0,0,1,131.27,96.52Zm0-33a15,15,0,1,0,15,15A15,15,0,0,0,131.27,63.48Z"/><path class="cls-6" d="M49.33,96.52A18,18,0,0,1,36.39,91a.46.46,0,0,0-.07-.07l-.11-.12A18,18,0,0,1,61.77,65.45a1.5,1.5,0,0,1,0,2.15L39.53,89.87l0,0A15,15,0,0,0,64.32,77.36a1.5,1.5,0,1,1,3-.22A18,18,0,0,1,50.71,96.47C50.25,96.5,49.79,96.52,49.33,96.52Zm0-33c-.38,0-.75,0-1.13,0A15,15,0,0,0,37.46,87.69L58.53,66.62A15.07,15.07,0,0,0,49.34,63.48Z"/><path class="cls-6" d="M27.58,96.52a1.5,1.5,0,0,1-1.5-1.5V74.43c0-3.61-1-6.25-2.93-8.06s-4.87-2.75-8.61-2.75-6.63.92-8.61,2.75S3,70.82,3,74.43V95a1.5,1.5,0,0,1-3,0V74.43C0,70,1.31,66.54,3.89,64.16S10,60.62,14.54,60.62s8.1,1.19,10.65,3.54S29.08,70,29.08,74.43V95A1.5,1.5,0,0,1,27.58,96.52Z"/><path class="cls-6" d="M83.43,96.52c-4.52,0-8.1-1.19-10.65-3.54s-3.89-5.84-3.89-10.27V62.12a1.5,1.5,0,1,1,3,0V82.71c0,3.61,1,6.24,2.93,8.06s4.87,2.75,8.61,2.75,6.63-.93,8.61-2.75S95,86.32,95,82.71V62.12a1.5,1.5,0,0,1,3,0V82.71c0,4.43-1.31,7.88-3.9,10.27S87.94,96.52,83.43,96.52Z"/><path class="cls-6" d="M102.77,75.93a1.5,1.5,0,0,1-1.5-1.5V62.34a1.5,1.5,0,0,1,3,0V74.43A1.5,1.5,0,0,1,102.77,75.93Z"/><path class="cls-6" d="M102.77,96.52a1.5,1.5,0,0,1-1.5-1.5V74.43c0-4.4,1.18-7.84,3.51-10.22s5.61-3.59,9.76-3.59a1.5,1.5,0,0,1,0,3c-3.35,0-5.85.88-7.62,2.69s-2.65,4.53-2.65,8.12V95A1.5,1.5,0,0,1,102.77,96.52Z"/></g></g></g></svg>