<svg xmlns="http://www.w3.org/2000/svg" viewBox="0 0 209.24 194.16"><defs><style>.cls-1{fill:#253e8b;}.cls-2{fill:#00aeef;}.cls-3{fill:#fff;}</style></defs><title>mercadoPagoVertical</title><g id="Layer_2" data-name="Layer 2"><g id="Layer_1-2" data-name="Layer 1"><g id="surface1"><path class="cls-1" d="M171.15,43.39C171.15,19.48,141.45,0,104.81,0S38.48,19.48,38.48,43.39c0,.62,0,2.32,0,2.54,0,25.36,26,45.9,66.33,45.9,40.63,0,66.35-20.54,66.35-45.9V43.39"/><path class="cls-2" d="M168.61,43.37c0,22.53-28.56,40.8-63.79,40.8S41,65.9,41,43.37,69.6,2.56,104.82,2.56s63.79,18.27,63.79,40.81"/><path class="cls-3" d="M83.64,30.5c0,.06-.66.72-.25,1.25,1,1.28,4.11,2,7.26,1.31,1.87-.42,4.27-2.33,6.59-4.17,2.52-2,5-4,7.53-4.8a8.57,8.57,0,0,1,5.49-.14,16.65,16.65,0,0,1,5,2.92c4.36,3.28,21.91,18.59,24.94,21.24a152.09,152.09,0,0,1,28-9c-1.28-7.87-6.06-15.06-13.32-21-10.11,4.25-22.46,6.46-34.55.56-.06,0-6.6-3.12-13-3-9.58.23-13.73,4.38-18.13,8.77l-5.57,6"/><path class="cls-3" d="M139.5,49.78c-.2-.18-20.63-18.06-25.26-21.54-2.68-2-4.17-2.52-5.73-2.72a8.11,8.11,0,0,0-2.73.26c-2.15.59-5,2.47-7.47,4.45s-5,4-7.29,4.51a11.81,11.81,0,0,1-8-1.2,3.56,3.56,0,0,1-1.33-1.47,2.47,2.47,0,0,1,.68-2.67L88,23.3l2-1.95a36.44,36.44,0,0,0-5.14,1.16,22.16,22.16,0,0,1-6,1.12,56.72,56.72,0,0,1-6.12-1,91.27,91.27,0,0,1-16.27-5.88c-8,6-13.37,13.43-14.92,21.64,1.15.31,3,.86,3.78,1,18.14,4,23.79,8.19,24.82,9.06a6,6,0,0,1,9.41.55,6.86,6.86,0,0,1,4.32-1.52,8.15,8.15,0,0,1,2.6.46,5.93,5.93,0,0,1,3.64,3.29,6.31,6.31,0,0,1,2.53-.53,7.71,7.71,0,0,1,3,.66c3.34,1.44,3.86,4.72,3.56,7.2a5.69,5.69,0,0,1,.72,0,7.18,7.18,0,0,1,6.33,10.59c1.07.61,3.82,2,6.24,1.67,1.93-.24,2.66-.9,2.92-1.27s.37-.56.2-.77l-5.12-5.68s-.85-.8-.56-1.11.8.14,1.17.45c2.61,2.17,5.79,5.46,5.79,5.46s.26.45,1.44.66a5.32,5.32,0,0,0,4-1,5.49,5.49,0,0,0,.89-.91l-.06,0a2.72,2.72,0,0,0-.15-3.37l-6-6.71s-.85-.79-.56-1.11.81.14,1.18.46c1.89,1.58,4.57,4.26,7.13,6.77a4.87,4.87,0,0,0,5.73-.2,4.11,4.11,0,0,0,2.12-3.74,4.32,4.32,0,0,0-1.26-2.5l-8.16-8.2s-.86-.74-.56-1.11.81.14,1.18.45c2.6,2.17,9.64,8.62,9.64,8.62a4.93,4.93,0,0,0,5.53-.11,3.69,3.69,0,0,0,1.82-2.92,4.34,4.34,0,0,0-1.37-3.33"/><path class="cls-3" d="M99.92,60.18c-1.27,0-2.65.74-2.83.63s.07-.58.19-.87,1.79-5.3-2.27-7a4.79,4.79,0,0,0-5.66.85c-.17.18-.25.16-.27-.06a4.48,4.48,0,0,0-3.15-4.17A6.15,6.15,0,0,0,79,52a4.45,4.45,0,1,0-1.32,3.77s0,.07,0,.15a5.86,5.86,0,0,0,3.65,6.73,4.36,4.36,0,0,0,4.3-.66c.35-.25.41-.14.36.19-.15,1,0,3.23,3.12,4.48a4,4,0,0,0,4.66-.86c.39-.37.5-.31.52.25a5.6,5.6,0,1,0,5.6-5.85"/><path class="cls-1" d="M99.92,71a5.16,5.16,0,0,1-5.19-5c0-.24,0-.87-.57-.87a1,1,0,0,0-.63.33A3.66,3.66,0,0,1,91,66.63a4.54,4.54,0,0,1-1.68-.36c-3-1.2-3-3.24-2.88-4.06a.76.76,0,0,0-.11-.62l-.18-.16H86a.9.9,0,0,0-.52.21,4.34,4.34,0,0,1-2.51.89,3.91,3.91,0,0,1-1.4-.27A5.46,5.46,0,0,1,78.11,56a.53.53,0,0,0-.16-.52l-.28-.23-.26.25a4,4,0,0,1-6.85-2.92,4,4,0,0,1,8-.51l.14,1.09.6-.92a5.92,5.92,0,0,1,4.71-2.58,6.12,6.12,0,0,1,1.76.27,4.1,4.1,0,0,1,2.86,3.82c0,.52.42.55.5.55a.65.65,0,0,0,.46-.24,4.12,4.12,0,0,1,3-1.26,5.76,5.76,0,0,1,2.23.5c3.81,1.64,2.08,6.48,2.06,6.53-.33.8-.34,1.16,0,1.36l.15.07h.1a2.55,2.55,0,0,0,.74-.19,6.53,6.53,0,0,1,2-.45h0a5.2,5.2,0,1,1,0,10.4Zm40.37-23.34C134,42.15,119.46,29.5,115.52,26.55a17.12,17.12,0,0,0-5.14-3,8.53,8.53,0,0,0-2.52-.39,10.57,10.57,0,0,0-3.2.54c-2.55.8-5.08,2.82-7.53,4.77l-.13.1c-2.29,1.81-4.65,3.69-6.43,4.09a10.68,10.68,0,0,1-2.39.27c-2,0-3.8-.58-4.47-1.44-.11-.14,0-.37.22-.71l0,0,5.54-6c4.34-4.33,8.43-8.43,17.86-8.64h.47a33.43,33.43,0,0,1,12.39,2.93,38.37,38.37,0,0,0,16.89,4.06,44.36,44.36,0,0,0,18.55-4.44c-.73-.61-1.48-1.2-2.25-1.78a40.8,40.8,0,0,1-16.28,3.7,36,36,0,0,1-15.81-3.81,35.55,35.55,0,0,0-13.49-3.18h-.53c-7.92.19-12.38,3-15.38,5.46a30.59,30.59,0,0,0-7.67,1.4,20.69,20.69,0,0,1-5.41,1c-.69,0-1.94-.06-2-.07C74.85,21.38,65.1,19,57.34,16.05c-.79.56-1.55,1.14-2.29,1.74,8.1,3.32,18,5.89,21.08,6.09.86.05,1.78.15,2.71.15a23,23,0,0,0,6.1-1.13c1.17-.33,2.47-.69,3.83-.95L87.68,23l-5.63,6.08a2.82,2.82,0,0,0-.76,3.11,3.91,3.91,0,0,0,1.48,1.64,11.71,11.71,0,0,0,6,1.51,10.13,10.13,0,0,0,2.39-.25c2.36-.52,4.83-2.49,7.45-4.58,2.09-1.66,5.05-3.76,7.32-4.38a8.49,8.49,0,0,1,2-.28,3,3,0,0,1,.53,0c1.5.19,3,.7,5.54,2.64,4.62,3.47,25.05,21.35,25.25,21.52a4,4,0,0,1,1.23,3,3.29,3.29,0,0,1-1.64,2.61,5,5,0,0,1-2.68.83,4.38,4.38,0,0,1-2.37-.69c-.07-.06-7.07-6.48-9.65-8.63a2.14,2.14,0,0,0-1.21-.65.67.67,0,0,0-.53.25c-.41.5,0,1.19.58,1.65l8.18,8.22a3.87,3.87,0,0,1,1.13,2.21,3.74,3.74,0,0,1-1.94,3.39,5.27,5.27,0,0,1-2.9,1,4.21,4.21,0,0,1-2.34-.71l-1.17-1.15c-2.14-2.11-4.35-4.29-6-5.65a2.19,2.19,0,0,0-1.21-.63.73.73,0,0,0-.52.22c-.18.21-.31.57.15,1.19a4.42,4.42,0,0,0,.41.46l6,6.7a2.28,2.28,0,0,1,.13,2.86l-.21.27a6.94,6.94,0,0,1-.55.54,4.81,4.81,0,0,1-2.92.92,5,5,0,0,1-.81-.07,2,2,0,0,1-1.17-.49l-.07-.08c-.33-.34-3.34-3.41-5.82-5.49a2.11,2.11,0,0,0-1.16-.62.68.68,0,0,0-.54.24c-.5.54.24,1.35.56,1.64L115.29,69a1.94,1.94,0,0,1-.2.34c-.18.25-.8.87-2.64,1.1a5.17,5.17,0,0,1-.68,0,11.6,11.6,0,0,1-5-1.48,7.46,7.46,0,0,0,.72-3.22,7.59,7.59,0,0,0-7.58-7.6h-.28c.14-1.91-.13-5.53-3.85-7.12a7.88,7.88,0,0,0-3.17-.7,6.46,6.46,0,0,0-2.33.42,6.39,6.39,0,0,0-3.72-3.16,8.3,8.3,0,0,0-2.72-.48,7.24,7.24,0,0,0-4.25,1.36A6.39,6.39,0,0,0,70.09,48c-1.59-1.2-7.87-5.2-24.69-9-.82-.18-2.69-.72-3.83-1.05a25.55,25.55,0,0,0-.43,2.76l3.71.88C62,45.35,67.71,49.32,68.67,50.07a6.37,6.37,0,0,0-.49,2.47A6.45,6.45,0,0,0,74.61,59a6.64,6.64,0,0,0,1.18-.11,7.53,7.53,0,0,0,4.86,5.61,6.42,6.42,0,0,0,2.29.44,5.64,5.64,0,0,0,1.47-.18,6.77,6.77,0,0,0,4,3.74,6.86,6.86,0,0,0,2.53.52,5.72,5.72,0,0,0,2-.35,7.58,7.58,0,0,0,12.46,2.4A14.11,14.11,0,0,0,111.78,73a7.82,7.82,0,0,0,1-.06c2.59-.33,3.8-1.34,4.35-2.13a4,4,0,0,0,.27-.44,7.24,7.24,0,0,0,2.06.32,6.91,6.91,0,0,0,4.15-1.48,5.73,5.73,0,0,0,2.46-3.56v-.06a6.56,6.56,0,0,0,1.39.14,7.71,7.71,0,0,0,4.27-1.35,6.12,6.12,0,0,0,3.06-5.48,7.13,7.13,0,0,0,5.41-1.09A5.85,5.85,0,0,0,143,53.27a6.12,6.12,0,0,0-.89-3.65,165.34,165.34,0,0,1,26.51-8.3c-.07-.93-.21-1.84-.37-2.75a151.82,151.82,0,0,0-27.92,9.07"/><path class="cls-1" d="M199.72,135a6.56,6.56,0,0,1-10,0,10.68,10.68,0,0,1-1.75-6.57,10.68,10.68,0,0,1,1.75-6.57,6.61,6.61,0,0,1,10,0,10.75,10.75,0,0,1,1.74,6.57A10.75,10.75,0,0,1,199.72,135Zm5.93-17.2c-2.39-3-6-4.5-10.91-4.5s-8.51,1.49-10.9,4.5a17.59,17.59,0,0,0,0,21.3q3.58,4.44,10.9,4.43t10.91-4.43a17.59,17.59,0,0,0,0-21.3"/><path class="cls-1" d="M140.68,131.45q-.08,3.74-2.13,5.14a7.78,7.78,0,0,1-4.49,1.41,4.08,4.08,0,0,1-2.61-.84,3.31,3.31,0,0,1-1.07-2.76,3.4,3.4,0,0,1,1.75-3.16,10.91,10.91,0,0,1,3.42-1l1.7-.32a12.75,12.75,0,0,0,2-.51,7.45,7.45,0,0,0,1.44-.72Zm3.77-16.22a18.15,18.15,0,0,0-8.33-1.85q-7.22,0-10.18,3.76a11,11,0,0,0-2.1,6.14H131a5.29,5.29,0,0,1,1.07-2.61,4.71,4.71,0,0,1,3.77-1.31,7.69,7.69,0,0,1,3.62.67,2.49,2.49,0,0,1,1.23,2.41,2.24,2.24,0,0,1-1.6,2.12,11.74,11.74,0,0,1-3,.65l-2.54.31a18.39,18.39,0,0,0-6.58,1.83q-4.08,2.35-4.08,7.6a7.82,7.82,0,0,0,2.54,6.25,10,10,0,0,0,6.42,2.21c16.24.72,16.06-8.56,16.21-10.49V122.23q0-5.15-3.65-7"/><path class="cls-1" d="M107.42,119.75a4.84,4.84,0,0,1,4.1,1.72,6.28,6.28,0,0,1,1.12,2.86h8q-.66-6.06-4.24-8.46a16.38,16.38,0,0,0-9.22-2.39c-4.41,0-7.88,1.35-10.38,4.06s-3.77,6.49-3.77,11.35a15.86,15.86,0,0,0,3.41,10.54q3.41,4,10.63,4t10.9-4.86a12,12,0,0,0,2.58-6.41h-8a6.74,6.74,0,0,1-1.4,3.65,4.82,4.82,0,0,1-3.91,1.41,5.21,5.21,0,0,1-5.28-3.55,13.58,13.58,0,0,1-.77-5,14.83,14.83,0,0,1,.77-5.24,5.38,5.38,0,0,1,5.42-3.72"/><path class="cls-1" d="M90.91,113.48c-16.46,0-15.49,14.57-15.49,14.57v14.8h7.47V129a11.41,11.41,0,0,1,.86-5.05q1.53-2.91,6-2.91l.88,0c.37,0,.79,0,1.26.11v-7.6l-.64,0h-.35"/><path class="cls-1" d="M53.43,121.21a5.9,5.9,0,0,1,4.43-1.62,6.5,6.5,0,0,1,4.4,1.53,6.21,6.21,0,0,1,2,4.48H51.46A7.68,7.68,0,0,1,53.43,121.21Zm10,13.9a5.11,5.11,0,0,1-1,1.13,6.39,6.39,0,0,1-4.18,1.14,7.1,7.1,0,0,1-4-1c-1.87-1.14-2.91-3.08-3-5.93H71.94a37,37,0,0,0-.25-5.63A13.88,13.88,0,0,0,69.43,119a11.63,11.63,0,0,0-4.9-4.2,16.24,16.24,0,0,0-6.67-1.33,13.74,13.74,0,0,0-10.15,3.93q-3.9,3.94-3.91,11.31,0,7.88,4.34,11.36a15.47,15.47,0,0,0,10,3.49q6.85,0,10.67-4.14a10,10,0,0,0,2.59-4.31H63.47"/><path class="cls-1" d="M40.8,142.84H34V125.67c0-1.57-.52-5.31-5-5.31a5,5,0,0,0-5.17,5.31v17.17H17V125.67c0-1.57-.46-5.31-5-5.31a5,5,0,0,0-5.17,5.31v17.17H0v-17c0-7.09,4.71-12.45,12-12.45a10.46,10.46,0,0,1,8.48,4,10.85,10.85,0,0,1,8.48-4c7.45,0,11.84,5.14,11.84,12.45v17"/><path class="cls-1" d="M169.07,135a5.48,5.48,0,0,1-4.79,2.35,5.24,5.24,0,0,1-4.7-2.36,12,12,0,0,1-1.54-6.48,11.4,11.4,0,0,1,1.51-6.1,5.22,5.22,0,0,1,4.78-2.46,5.68,5.68,0,0,1,3.75,1.35c1.75,1.49,2.63,4.17,2.63,7.64A10.36,10.36,0,0,1,169.07,135Zm9-30.51s-7.53-.8-7.53,5.24v8a9,9,0,0,0-3.25-3.14,9.21,9.21,0,0,0-4.59-1.13,10.88,10.88,0,0,0-8.94,4.16c-2.23,2.78-3.34,6.78-3.34,11.62a15.41,15.41,0,0,0,3.4,10.32c2.26,2.68,6.7,3.86,10.65,3.86,13.75,0,13.59-11.8,13.59-11.8V104.5"/><path class="cls-2" d="M66.89,167.76a10.89,10.89,0,0,0-1.66-6.51A5.47,5.47,0,0,0,60.51,159a5.38,5.38,0,0,0-4.62,2.29c-1,1.37-1.54,3.55-1.54,6.51q0,4.13,1.65,6.18a5.49,5.49,0,0,0,4.73,2.28,5.25,5.25,0,0,0,4.5-2.28,10.25,10.25,0,0,0,1.66-6.18M54.35,188a3.53,3.53,0,0,1-1.1,2.6,3.63,3.63,0,0,1-2.64,1.09H46.87v-26c0-5.05,1.71-8.22,4.51-10.36,1.85-1.42,4.62-2.76,9.79-2.76,3.49,0,7.58,1.35,9.79,4,2.48,3,3.51,6.41,3.51,10.82,0,4.56-1.09,8.24-3.29,11.07a10.37,10.37,0,0,1-8.47,4.12,11.33,11.33,0,0,1-4.84-1,8.27,8.27,0,0,1-3.52-3.37V188"/><path class="cls-2" d="M111.73,167.76q0,7.49,4.32,8.29t6.37-2a8,8,0,0,0,1.4-3.74,15.8,15.8,0,0,0,.06-5,10,10,0,0,0-1.78-4.45,4.76,4.76,0,0,0-4.11-2c-2.45,0-4.1.91-5,2.71a14.31,14.31,0,0,0-1.29,6.19M124,180.23v-1.84a8.26,8.26,0,0,1-5.24,3.79,10.79,10.79,0,0,1-6.53-.54,12.19,12.19,0,0,1-5.57-4.83,16.66,16.66,0,0,1-2.32-9.27q0-6.72,3.08-10.9c2.05-2.78,5.35-4,9.88-4.17s7.07.89,9.62,2.82c2.78,2.11,4.43,5.35,4.43,10.41V181c0,4.87-3.39,13.89-14,13.12-6.6-.48-10.26-3.18-12.31-9.32h7.89a6.05,6.05,0,0,0,6.21,2.76,5.93,5.93,0,0,0,3.24-2.12,8.86,8.86,0,0,0,1.67-5.2"/><path class="cls-2" d="M94.2,170.78c0,2.49-.76,4.2-2.13,5.15a7.79,7.79,0,0,1-4.5,1.41,4.11,4.11,0,0,1-2.61-.85,3.31,3.31,0,0,1-1.08-2.76,3.4,3.4,0,0,1,1.76-3.16,10.76,10.76,0,0,1,3.43-1l1.7-.32a12.75,12.75,0,0,0,2-.51A7.45,7.45,0,0,0,94.2,168ZM98,154.53a18.22,18.22,0,0,0-8.34-1.85c-4.82,0-8.21,1.25-10.2,3.76a11,11,0,0,0-2.1,6.15h7.2A5.36,5.36,0,0,1,85.6,160a4.73,4.73,0,0,1,3.78-1.3,7.69,7.69,0,0,1,3.62.67,2.5,2.5,0,0,1,1.24,2.41,2.25,2.25,0,0,1-1.61,2.12,12,12,0,0,1-3,.66l-2.55.31a18.07,18.07,0,0,0-6.58,1.83q-4.09,2.36-4.09,7.61A7.83,7.83,0,0,0,79,180.54a10,10,0,0,0,6.43,2.21c16.27.73,16.08-8.57,16.23-10.5V161.54c0-3.43-1.21-5.77-3.65-7"/><path class="cls-2" d="M153.74,174.13a6.6,6.6,0,0,1-10,0,13.25,13.25,0,0,1,0-13.16,6.62,6.62,0,0,1,10,0,13.31,13.31,0,0,1,0,13.16m5.94-17.24q-3.6-4.51-10.93-4.51c-4.87,0-8.52,1.5-10.91,4.51a17.57,17.57,0,0,0,0,21.34c2.39,3,6,4.45,10.91,4.45s8.53-1.49,10.93-4.45a17.61,17.61,0,0,0,0-21.34"/></g></g></g></svg>