<svg xmlns="http://www.w3.org/2000/svg" viewBox="0 0 346.03 346.03"><defs><style>.cls-1{fill:#f47421;}.cls-2{fill:#231f20;opacity:0.6;}.cls-3{fill:#ede7ad;}</style></defs><title>pilar-055</title><g id="Layer_2" data-name="Layer 2"><g id="Layer_1-2" data-name="Layer 1"><circle class="cls-1" cx="173.02" cy="173.02" r="164.52"/><path class="cls-2" d="M216.53,79.47l125.76,96.84-17.91,67.91-38.89,54.94-65.93,34L121.1,261.67l-4.55-78.06s11.31-30.58,11.31-31.84-14.67-35.19-14.67-36.44-3.77-26,0-26.82,33.1-9.29,35.19-9S216.53,79.47,216.53,79.47Z"/><path class="cls-3" d="M209.57,148.21c6.4-5.9,22.28-22.46,21.93-41.25-.4-21.78-23.95-35.33-33.32-37.22V69.5H130v.24C120.65,71.63,97.1,85.18,96.7,107c-.44,23.52,24.56,43.56,24.56,43.56l0,0a72,72,0,1,0,88.29-2.29Zm-93.71-41.68c0-13.54,11.56-17.61,16.72-18.75l31.52-.22,31.52.22c5.16,1.14,16.72,5.21,16.72,18.75,0,14.34-15.73,27.59-21.29,31.82a72.12,72.12,0,0,0-52,1.43h0S115.86,124,115.86,106.53ZM155,228.1l-9.93-17.51-3.49,4.27V228.1h-9.09V187.55h9.09v17.93h.18c.9-1.57,1.86-3,2.77-4.45l9.2-13.48H165l-13.41,17.27L165.7,228.1Zm16.3-5c-3.73-3.49-5.78-8.79-5.72-14.74.06-13.48,9.87-21.18,23.16-21.18a28,28,0,0,1,11.26,2l-1.93,7.34a22.53,22.53,0,0,0-9.45-1.74c-7.64,0-13.41,4.33-13.41,13.11,0,8.37,5.23,13.3,12.75,13.3a12.27,12.27,0,0,0,4.51-.6V212h-6.25v-7.16h15.1v21.36a45.5,45.5,0,0,1-13.54,2.28C180.38,228.52,175,226.66,171.3,223.05Zm56.89-13.42v.16l-.06,1.33c0,.89-.08,1.78-.12,2.66s-.08,1.77-.13,2.65-.25,1.88-.37,2.81A62.7,62.7,0,0,1,225.19,230c-.63,1.68-1.17,3.34-1.83,4.92s-1.47,3.07-2.26,4.5-1.7,2.76-2.61,4c-.48.61-1,1.2-1.43,1.78a17.35,17.35,0,0,1-1.42,1.65,34,34,0,0,1-5.89,5l-1.39.9c-.46.27-.92.5-1.36.72s-.85.45-1.26.64l-1.18.49a21.3,21.3,0,0,1-3.57,1.1,10.12,10.12,0,0,1-1.29.21s.4-.22,1.11-.67a29.08,29.08,0,0,0,2.87-2.14l.92-.77c.31-.28.62-.6,1-.91s.67-.63,1-1l1-1.13a39.32,39.32,0,0,0,4.1-5.53,15.05,15.05,0,0,0,1-1.67l.94-1.74c.58-1.21,1.1-2.5,1.68-3.79s.93-2.73,1.42-4.14.74-2.94,1.12-4.45c.22-.74.26-1.55.42-2.32s.27-1.57.41-2.36l.2-1.19.09-1.19.24-2.39c.07-.81.17-1.59.23-2.42s0-1.76.06-2.65l.09-2.66,0-1.33V209l0-.64c-.05-1.69-.1-3.38-.16-5.07s-.3-3.33-.44-5a47.57,47.57,0,0,0-.68-4.85c-.13-.8-.26-1.59-.4-2.38s-.37-1.53-.55-2.29-.37-1.52-.55-2.27a8,8,0,0,0-.32-1.09c-.12-.36-.24-.72-.35-1.08-.23-.72-.46-1.43-.68-2.13a9,9,0,0,0-.38-1c-.14-.33-.28-.66-.41-1l-.8-2a6.89,6.89,0,0,0-.44-1l-.45-.91c-.31-.61-.6-1.21-.89-1.8s-.67-1.11-1-1.67-.64-1.08-1-1.6-.69-1-1-1.47-.65-.95-1-1.4l-1-1.26c-.62-.85-1.3-1.55-1.91-2.24s-1.23-1.25-1.76-1.81c-1.11-1.06-2-1.87-2.69-2.38l-.77-.58-.27-.19a12.56,12.56,0,0,1,1.26.33,25.1,25.1,0,0,1,3.45,1.4,24.68,24.68,0,0,1,2.35,1.29,24.27,24.27,0,0,1,2.63,1.77l1.41,1.06c.46.39.92.82,1.4,1.24s1,.87,1.45,1.35l1.4,1.52c.47.52,1,1,1.43,1.63l1.35,1.79a48.22,48.22,0,0,1,4.87,8.42,25.09,25.09,0,0,1,1.05,2.37l.87,2.48c.29.84.61,1.68.87,2.54s.43,1.75.64,2.63.43,1.77.65,2.66a10.49,10.49,0,0,1,.25,1.36l.19,1.36.39,2.75a23.68,23.68,0,0,1,.3,2.77c.09,1.85.17,3.71.26,5.57l0,.7v.69Z"/><path class="cls-3" d="M219.57,209.2v.13s0-.12,0-.16Z"/><path class="cls-3" d="M173,346C77.61,346,0,268.42,0,173S77.61,0,173,0,346,77.61,346,173,268.42,346,173,346Zm0-329C87,17,17,87,17,173S87,329,173,329s156-70,156-156S259,17,173,17Z"/></g></g></svg>