<svg xmlns="http://www.w3.org/2000/svg" viewBox="0 0 346.03 346.03"><defs><style>.cls-1{fill:#f47421;}.cls-2{fill:#231f20;opacity:0.6;}.cls-3{fill:#ede7ad;}</style></defs><title>pilar-02</title><g id="Layer_2" data-name="Layer 2"><g id="Layer_1-2" data-name="Layer 1"><circle class="cls-1" cx="173.02" cy="173.02" r="164.52"/><path class="cls-2" d="M116.22,98.67l22.95,17.58,28.09-8.79v-4.09s-23.17-.55-26.09-25.81c0,0,9.2-27.49,28.05-24.13l19,3.49,36.12,42.76,9.84,6.23,95.8,93-.66,35.23-32,51.82-38.54,27.52-68,20.82-80.48-90.62s-40.57-60.92,11.42-114.4Z"/><path class="cls-3" d="M218.86,124.44l3.17-5,2.56,1.62,9.57-15.14-11.44-7.24-9.58,15.14,2.56,1.61-3,4.69A80.35,80.35,0,0,0,175,107.62V105a28.08,28.08,0,1,0-11.59,0v2.62a80.51,80.51,0,0,0-37.36,12.26l-2.82-4.46,2.55-1.61-9.58-15.14-11.44,7.24,9.58,15.14,2.55-1.62,3,4.75a80.88,80.88,0,1,0,98.94.26ZM145.1,77.56A24.13,24.13,0,1,1,175,101V92.05h8.12V74.66H155.31V92.05h8.12V101A24.16,24.16,0,0,1,145.1,77.56Zm24.12,179a68.29,68.29,0,1,1,68.3-68.29A68.37,68.37,0,0,1,169.22,256.58Z"/><rect class="cls-3" x="167.26" y="121.84" width="3.93" height="14.79"/><rect class="cls-3" x="167.26" y="239.77" width="3.93" height="14.79"/><rect class="cls-3" x="102.87" y="187.02" width="14.79" height="3.93"/><rect class="cls-3" x="220.8" y="187.02" width="14.79" height="3.93"/><path class="cls-3" d="M170.08,172.06a18,18,0,0,0-2.87.23l-24.29-27.9-3.75,1.88,17.14,32.14a18.12,18.12,0,1,0,13.77-6.35Zm.19,23.34a4.59,4.59,0,1,1,4.58-4.59A4.6,4.6,0,0,1,170.27,195.4Z"/><path class="cls-3" d="M173,346C77.62,346,0,268.42,0,173S77.62,0,173,0,346,77.61,346,173,268.42,346,173,346Zm0-329C87,17,17,87,17,173S87,329,173,329s156-70,156-156S259,17,173,17Z"/></g></g></svg>