<svg xmlns="http://www.w3.org/2000/svg" viewBox="0 0 346.03 346.03"><defs><style>.cls-1{fill:#06aa91;}.cls-2{fill:#231f20;opacity:0.6;}.cls-3{fill:#ede7ad;}</style></defs><title>pilar-03</title><g id="Layer_2" data-name="Layer 2"><g id="Layer_1-2" data-name="Layer 1"><circle class="cls-1" cx="173.02" cy="173.02" r="164.52" transform="translate(-71.67 173.02) rotate(-45)"/><polygon class="cls-2" points="212.86 58.44 329.33 122.86 329.33 224.44 294.6 284.95 228.42 332.81 186.63 334.87 126.25 299.17 126.25 162.92 133.17 145.06 120.52 127.95 139.44 105.48 127.83 92.98 157.3 77.01 162.61 63.98 152.68 57.38 173.21 53.84 212.86 58.44"/><path class="cls-3" d="M225.42,75.86c-3.61-24.24-39.11-24.55-47.5-24.28v-2.1H152.68v7.9h4.15v14c-9.27.7-23.55,3.67-29,14.9V93h8.9v10.74H120.52V128s14,3.58,14.38,7c0,0-14.38,19.62-14.38,27.12V290.52s4.66,13.64,18.14,13.64h53.28c13.48,0,18.14-13.64,18.14-13.64V162.06c0-7.5-14.38-27.12-14.38-27.12.34-3.41,14.38-7,14.38-7h0V112.88A37.87,37.87,0,0,0,225.42,75.86ZM144.06,93h43v10.74h-43Zm58.67,70.21V283.64H128.44V163.19Zm-8.86-59.47V93h8.9V86.32c-5.45-11.23-19.73-14.2-29-14.9v-14h4.15V55.94c7.28-.21,40.15,0,43.2,20.55,2.42,16.31-5.66,26.24-11,30.92v-3.69Z"/><path class="cls-3" d="M173,346C77.61,346,0,268.42,0,173S77.61,0,173,0,346,77.61,346,173,268.42,346,173,346Zm0-329C87,17,17,87,17,173S87,329,173,329s156-70,156-156S259,17,173,17Z"/></g></g></svg>